<svg width="170" height="170" viewBox="0 0 170 170" fill="none" xmlns="http://www.w3.org/2000/svg">
<path d="M105.19 13.7548C104.674 13.7548 104.159 13.5603 103.759 13.1597L98.9059 8.3067C98.1161 7.51695 98.1161 6.23503 98.9059 5.44528L103.759 0.592314C104.549 -0.197438 105.83 -0.197438 106.62 0.592314L111.473 5.44528C112.263 6.23503 112.263 7.51695 111.473 8.3067L106.62 13.1597C106.22 13.5603 105.705 13.7548 105.19 13.7548ZM103.187 6.87599L105.178 8.86754L107.17 6.87599L105.178 4.88444L103.187 6.87599Z" fill="#D2D2D2"/>
<path d="M21.4644 69.9763C20.9493 69.9763 20.4343 69.7817 20.0337 69.3811L15.1807 64.5281C14.3909 63.7384 14.3909 62.4565 15.1807 61.6667L20.0337 56.8137C20.8234 56.024 22.1053 56.024 22.8951 56.8137L27.748 61.6667C28.5378 62.4565 28.5378 63.7384 27.748 64.5281L22.8951 69.3811C22.5059 69.7817 21.9794 69.9763 21.4644 69.9763ZM19.4728 63.0974L21.4644 65.089L23.4559 63.0974L21.4644 61.1059L19.4728 63.0974Z" fill="#C4C4C4"/>
<path d="M30.4721 79.3157C30.1288 79.3157 29.7854 79.2242 29.4649 79.041L29.4306 79.0182C28.4577 78.4573 28.1258 77.2212 28.6866 76.2597C29.2475 75.2869 30.4836 74.9549 31.445 75.5158L31.4794 75.5387C32.4522 76.0995 32.7842 77.3356 32.2233 78.2971C31.8456 78.9495 31.1703 79.3157 30.4721 79.3157Z" fill="#DEDEDE"/>
<path d="M40.5558 85.1302C40.2125 85.1302 39.8691 85.0386 39.5486 84.8555L39.5143 84.8326C38.5414 84.2718 38.2095 83.0356 38.7703 82.0742C39.3311 81.1013 40.5673 80.7694 41.5287 81.3302L41.563 81.3531C42.5359 81.914 42.8678 83.1501 42.307 84.1115C41.9293 84.7639 41.254 85.1188 40.5558 85.1188V85.1302Z" fill="#DEDEDE"/>
<path d="M40.5099 79.316C39.8118 79.316 39.125 78.9498 38.7588 78.3088C38.1979 77.3359 38.5298 76.0998 39.5027 75.5504L39.5371 75.5275C40.5099 74.9667 41.7461 75.2986 42.2955 76.2715C42.8563 77.2443 42.5244 78.4805 41.5515 79.0299L41.5172 79.0528C41.1967 79.2359 40.8533 79.3275 40.5099 79.3275V79.316Z" fill="#DEDEDE"/>
<path d="M30.4377 85.1302C29.7395 85.1302 29.0528 84.7639 28.6865 84.1115C28.1257 83.1386 28.469 81.9025 29.4305 81.3531L29.4648 81.3302C30.4377 80.7693 31.6738 81.1127 32.2232 82.0742C32.7841 83.047 32.4407 84.2832 31.4793 84.8326L31.4449 84.8555C31.1244 85.0386 30.7811 85.1302 30.4377 85.1302Z" fill="#DEDEDE"/>
<path d="M40.5099 79.316C39.8118 79.316 39.125 78.9498 38.7588 78.3088C38.1979 77.3359 38.5298 76.0998 39.5027 75.5504L39.5371 75.5275C40.5099 74.9667 41.7461 75.2986 42.2955 76.2715C42.8563 77.2443 42.5244 78.4805 41.5515 79.0299L41.5172 79.0528C41.1967 79.2359 40.8533 79.3275 40.5099 79.3275V79.316Z" fill="#DEDEDE"/>
<path d="M30.4377 85.1302C29.7395 85.1302 29.0528 84.7639 28.6865 84.1115C28.1257 83.1386 28.469 81.9025 29.4305 81.3531L29.4648 81.3302C30.4377 80.7693 31.6738 81.1127 32.2232 82.0742C32.7841 83.047 32.4407 84.2832 31.4793 84.8326L31.4449 84.8555C31.1244 85.0386 30.7811 85.1302 30.4377 85.1302Z" fill="#DEDEDE"/>
<path d="M35.4968 76.4201C34.3751 76.4201 33.4709 75.5159 33.4709 74.3942V74.3484C33.4709 73.2267 34.3751 72.3225 35.4968 72.3225C36.6184 72.3225 37.5227 73.2267 37.5227 74.3484V74.3942C37.5227 75.5159 36.6184 76.4201 35.4968 76.4201Z" fill="#DEDEDE"/>
<path d="M35.4968 88.0492C34.3751 88.0492 33.4709 87.145 33.4709 86.0233V85.9775C33.4709 84.8559 34.3751 83.9517 35.4968 83.9517C36.6184 83.9517 37.5227 84.8559 37.5227 85.9775V86.0233C37.5227 87.145 36.6184 88.0492 35.4968 88.0492Z" fill="#DEDEDE"/>
<path d="M84.8048 128.67L160.587 123.405V114.076C160.587 113.413 160.06 112.886 159.396 112.863C147.939 112.531 147.55 107.335 135.326 107.335C123.102 107.335 122.69 112.875 110.065 112.875C97.4409 112.875 97.4294 107.335 84.8048 107.335C72.1802 107.335 72.1688 112.875 59.5442 112.875C46.9196 112.875 46.9082 107.335 34.2836 107.335C21.659 107.335 21.6705 112.52 10.2019 112.863C9.53804 112.886 9.01154 113.413 9.01154 114.076V123.405L84.8048 128.67Z" fill="#D3D3D3"/>
<path d="M138.233 107.449C137.34 107.381 136.379 107.335 135.315 107.335C122.679 107.335 122.679 112.875 110.054 112.875C97.4293 112.875 97.4179 107.335 84.7933 107.335C74.0802 107.335 72.4434 111.318 64.4887 112.531L46.7021 143.961L82.9849 164.495C83.5572 164.472 84.1524 164.449 84.7933 164.449C90.3559 164.449 93.4691 165.525 96.2962 166.727H104.709L137.707 108.422C137.89 108.102 138.062 107.77 138.233 107.449Z" fill="#CCCCCC"/>
<path d="M160.587 137.162V123.404C147.951 123.404 147.951 117.865 135.326 117.865C122.701 117.865 122.701 123.404 110.065 123.404C97.4293 123.404 97.4293 117.865 84.8047 117.865C72.1802 117.865 72.1687 123.404 59.5441 123.404C46.9195 123.404 46.9081 117.865 34.2835 117.865C21.6589 117.865 21.6475 123.404 9.02289 123.404V137.162L84.8162 143.32L160.598 137.162H160.587Z" fill="#CCCCCC"/>
<path d="M132.304 117.979C122.598 118.78 121.591 123.393 110.065 123.393C97.4294 123.393 97.4294 117.853 84.8048 117.853C72.1802 117.853 72.1688 123.393 59.5442 123.393C59.1321 123.393 58.743 123.393 58.3653 123.382L46.7136 143.961L48.0298 144.705H117.185L132.316 117.979H132.304Z" fill="#C4C4C4"/>
<path d="M134.307 55.4059L130.668 64.0817C131.995 65.7642 133.14 67.5726 134.078 69.4726L133.094 72.2768L135.635 73.2039C138.405 81.2502 137.833 90.4067 133.312 98.4073L113.831 132.836L109.321 138.261L107.822 143.457L101.95 153.827L77.1361 134.072L56.6255 108.651L62.4971 98.2814L67.0296 92.8218L68.5862 87.5224L79.6199 68.019C85.9837 56.7793 98.345 51.0565 110.42 52.6246L116.441 44.4409L119.027 37.4133L129.317 19.2261L149.564 30.6832L139.263 48.8704L134.296 55.4059H134.307Z" fill="#E3E3E3"/>
<path d="M101.962 52.7046C93.2058 53.998 85.1023 59.034 80.1692 67.1032H93.8697C98.3335 67.1032 101.962 63.475 101.962 59.0112V52.7046Z" fill="#DEDEDE"/>
<path d="M135.646 73.2039L127.669 76.7979C127.406 76.9123 127.119 76.981 126.845 76.981C126.456 76.981 126.055 76.8665 125.723 76.6376L118.558 71.8533C117.631 71.2353 117.379 69.9762 117.997 69.0491C118.615 68.122 119.874 67.8702 120.801 68.4883L127.039 72.6431L134.09 69.4726C134.696 70.6859 135.212 71.9335 135.658 73.2039H135.646Z" fill="#D9D9D9"/>
<path d="M124.109 97.0792C123.285 97.0792 122.507 96.5642 122.209 95.7515L120.95 92.2835C120.756 91.7455 120.801 91.1618 121.065 90.6582L125.437 82.3143L124.83 75.1264C124.739 74.0162 125.563 73.0319 126.673 72.9403C127.783 72.8487 128.768 73.6728 128.859 74.7831L129.512 82.5547C129.546 82.9324 129.466 83.3215 129.283 83.6649L125.048 91.7341L125.998 94.3666C126.376 95.4196 125.838 96.5756 124.785 96.9533C124.556 97.0334 124.327 97.0792 124.098 97.0792H124.109Z" fill="#D9D9D9"/>
<path d="M107.822 143.457L113.831 132.836C98.7455 117.739 83.6945 102.596 68.5862 87.5225L62.4971 98.2814C77.6054 113.344 92.7251 128.384 107.822 143.457Z" fill="#EDEDED"/>
<path d="M101.962 153.827L100.325 156.723H82.5499L42.3184 133.946L46.4388 126.667L48.934 125.602L48.4075 123.187L56.6369 108.64C71.7452 123.702 86.8649 138.742 101.962 153.816V153.827Z" fill="#EDEDED"/>
<path d="M62.9664 128.887C62.4285 129.872 61.2038 130.238 60.2194 129.7L58.7429 128.899L54.5767 130.776C54.3135 130.89 54.0273 130.959 53.7526 130.959C53.3749 130.959 52.9972 130.856 52.6767 130.65L46.622 126.816C46.5533 126.781 46.4961 126.735 46.4388 126.678L48.4075 123.199C48.5334 123.245 48.6707 123.313 48.7852 123.393L53.9129 126.644L58.0104 124.801C58.5827 124.538 59.2466 124.561 59.8074 124.87L62.1652 126.152C63.1495 126.69 63.5158 127.914 62.9779 128.899L62.9664 128.887Z" fill="#E3E3E3"/>
<path d="M58.8345 128.669C58.6743 128.669 58.514 128.646 58.3423 128.612C57.255 128.337 56.5912 127.25 56.8659 126.163L58.2966 120.371C58.5598 119.284 59.6586 118.631 60.7459 118.895C61.8333 119.158 62.4971 120.257 62.2224 121.344L60.7917 127.136C60.5628 128.063 59.7387 128.669 58.8345 128.669Z" fill="#E3E3E3"/>
<path d="M122.907 30.7289L129.328 19.3977L149.564 30.8663L143.143 42.1975L122.907 30.7289Z" fill="#DEDEDE"/>
<path d="M110.477 52.6815L119.096 37.4817L139.332 48.9503L130.713 64.1501L110.477 52.6815Z" fill="#CBCBCB"/>
<path d="M129.432 53.38C129.1 53.38 128.756 53.2999 128.436 53.1167L120.973 48.8933C120 48.3439 119.657 47.1078 120.206 46.1349C120.756 45.162 121.992 44.8186 122.965 45.368L130.427 49.5915C131.4 50.1409 131.744 51.377 131.194 52.3499C130.816 53.0023 130.141 53.38 129.432 53.38Z" fill="#DDDDDD"/>
<path d="M155.264 30.3741L154.051 32.5144C152.952 34.4602 150.48 35.1469 148.534 34.0482L126.959 21.8356C125.013 20.7368 124.327 18.2646 125.425 16.3188L126.639 14.1785L142.285 20.9543L155.253 30.3741H155.264Z" fill="#EDEDED"/>
<path d="M155.264 30.3857L126.65 14.1901L127.863 12.0498C128.962 10.104 131.435 9.41727 133.38 10.5161L154.955 22.7286C156.901 23.8274 157.588 26.2996 156.489 28.2454L155.276 30.3857H155.264Z" fill="#F3F3F3"/>
<path d="M98.7914 144.43C97.0287 150.004 88.1698 152.168 79.0018 149.283C69.8224 146.388 63.8134 139.532 65.576 133.958L84.1867 74.9551L117.402 85.4393L98.7914 144.442V144.43Z" fill="#F3F3F3"/>
<path d="M101.183 136.842L105.178 124.171C95.9299 114.9 86.6818 105.618 77.4222 96.3582L73.3934 109.143C82.6529 118.38 91.9239 127.605 101.183 136.842Z" fill="#FBFBFB"/>
<path d="M117.459 85.4046C119.222 79.8306 113.201 72.9632 104.022 70.0674C94.8426 67.1717 85.9837 69.3464 84.221 74.9204C82.4584 80.4944 88.4788 87.3619 97.6582 90.2576C106.838 93.1534 115.697 90.9787 117.459 85.4046Z" fill="#EDEDED"/>
<path d="M117.402 85.4277C116.921 86.9614 115.891 88.2433 114.461 89.2277C112.881 84.9699 107.902 80.7922 101.264 78.6976C94.6252 76.6031 88.1355 77.1639 84.4042 79.7506C83.7976 78.1254 83.6945 76.4886 84.1753 74.9549C85.9379 69.3809 94.7968 67.2176 103.965 70.1134C113.144 73.0091 119.153 79.8651 117.391 85.4391L117.402 85.4277Z" fill="#F3F3F3"/>
<path d="M107.341 87.2476L84.8848 158.44C84.736 158.92 84.2782 159.252 83.7746 159.241C81.3939 159.195 78.8415 158.783 76.2662 157.97C67.0982 155.075 61.0778 148.207 62.8404 142.645L84.1866 74.955C84.5071 73.9592 85.045 73.0664 85.7776 72.2996C86.4986 77.1067 91.901 82.1543 99.4208 84.535C101.779 85.279 104.114 85.691 106.311 85.794C107.055 85.8283 107.559 86.5609 107.33 87.2705L107.341 87.2476Z" fill="#FBFBFB"/>
<path d="M90.0698 141.969L85.4114 156.711H82.5385L62.5544 145.403C62.4628 144.453 62.5429 143.526 62.8176 142.622L69.4905 121.47C76.3464 128.303 83.2024 135.125 90.0584 141.969H90.0698Z" fill="white"/>
<path d="M97.9788 116.937L93.9728 129.631C87.1168 122.798 80.2609 115.965 73.4049 109.143L77.4338 96.3582C84.2897 103.214 91.1343 110.082 97.9788 116.937Z" fill="white"/>
<path d="M160.587 152.625V137.162C147.951 137.162 147.951 131.622 135.326 131.622C122.701 131.622 122.701 137.162 110.065 137.162C97.4293 137.162 97.4293 131.622 84.8047 131.622C72.1802 131.622 72.1687 137.162 59.5441 137.162C46.9195 137.162 46.9081 131.622 34.2835 131.622C21.6589 131.622 21.6475 137.162 9.02289 137.162V152.625L84.8162 158.291L160.598 152.625H160.587Z" fill="#F2F2F2"/>
<path d="M9.01154 168.764C9.01154 169.451 9.57237 170 10.2591 169.977C21.659 169.622 22.0711 164.46 34.2836 164.46C46.4961 164.46 46.9196 170 59.5442 170C72.1688 170 72.1802 164.46 84.8048 164.46C97.4294 164.46 97.4409 170 110.065 170C122.69 170 122.69 164.46 135.326 164.46C147.962 164.46 147.939 169.634 159.339 169.977C160.026 170 160.587 169.451 160.587 168.764V152.625C147.951 152.625 147.951 147.086 135.326 147.086C122.701 147.086 122.701 152.625 110.065 152.625C97.4294 152.625 97.4294 147.086 84.8048 147.086C72.1802 147.086 72.1688 152.625 59.5442 152.625C46.9196 152.625 46.9082 147.086 34.2836 147.086C21.659 147.086 21.6476 152.625 9.02298 152.625V168.764H9.01154Z" fill="#E1E1E1"/>
<path d="M135.326 107.346C132.133 107.346 129.752 107.701 127.772 108.228L133.323 98.4186C139.687 87.1675 138.21 73.6272 130.668 64.0815L147.87 33.6818L148.534 34.0595C150.48 35.1583 152.952 34.4716 154.051 32.5258L156.478 28.2337C157.576 26.2879 156.89 23.8157 154.944 22.7169L133.369 10.5043C131.423 9.40555 128.951 10.0923 127.852 12.0381L125.425 16.3302C124.327 18.2759 125.013 20.7482 126.959 21.847L127.623 22.2247L110.42 52.6244C98.345 51.0678 85.9837 56.7792 79.6199 68.0303L54.4393 112.52C46.5991 111.283 44.928 107.346 34.2721 107.346C22.0481 107.346 21.6589 112.531 10.1904 112.863C9.5265 112.886 9 113.412 9 114.076V168.764C9 169.45 9.56084 170 10.2476 169.977C21.6475 169.622 22.0595 164.46 34.2721 164.46C46.4846 164.46 46.9081 170 59.5327 170C72.1573 170 72.1687 164.46 84.7933 164.46C97.4179 164.46 97.4293 170 110.054 170C122.679 170 122.679 164.46 135.315 164.46C147.951 164.46 147.928 169.634 159.328 169.977C160.014 170 160.575 169.45 160.575 168.764V114.076C160.575 113.412 160.049 112.886 159.385 112.863C147.928 112.531 147.527 107.346 135.303 107.346H135.326Z" fill="url(#paint0_linear_2003_1914)"/>
<path d="M45.1035 20.3936H94.32C98.7838 20.3936 102.412 24.0218 102.412 28.4856V49.3053C102.412 53.7691 98.7838 57.3974 94.32 57.3974H66.61V61.7353C66.61 63.5666 64.6642 64.7341 63.0389 63.8757L50.8264 57.3974H45.0921C40.6283 57.3974 37 53.7691 37 49.3053V28.4856C37 24.0218 40.6283 20.3936 45.0921 20.3936H45.1035Z" fill="#CCCCCC"/>
<path d="M45.1035 20.3936H94.32C98.7838 20.3936 102.412 24.0218 102.412 28.4856V49.3053C102.412 53.7691 98.7838 57.3974 94.32 57.3974H66.61V61.7353C66.61 63.5666 64.6642 64.7341 63.0389 63.8757L50.8264 57.3974H45.0921C40.6283 57.3974 37 53.7691 37 49.3053V28.4856C37 24.0218 40.6283 20.3936 45.0921 20.3936H45.1035Z" fill="url(#paint1_linear_2003_1914)"/>
<path d="M92.507 48.3736C91.7602 48.3736 91.3363 48.0412 91.3363 47.3059V41.8266C91.3363 41.2021 91.6391 40.8899 92.2547 40.8899H93.496C95.8575 40.8899 97.1695 42.1187 97.1695 44.4756C97.1695 46.6915 95.7667 48.3736 93.4455 48.3736H92.507ZM93.0015 42.3705V46.893H93.5868C94.6667 46.893 95.5043 45.8857 95.5043 44.4857C95.5043 42.995 94.7979 42.3705 93.3648 42.3705H93.0015Z" fill="white"/>
<path d="M88.6431 41.3934C88.6431 40.6179 90.3083 40.6179 90.3083 41.3934V47.6785C90.3083 48.5347 89.1174 48.5951 88.7743 48.0512L86.221 44.1633V47.8397C86.221 48.6153 84.5558 48.6153 84.5558 47.8397V41.5345C84.5558 40.8093 85.7265 40.5574 86.1302 41.2121L88.6431 45.1202V41.3934Z" fill="white"/>
<path d="M83.6248 41.4235V45.6639C83.6248 47.5676 82.3936 48.4841 80.7789 48.4841C79.1641 48.4841 77.9329 47.5676 77.9329 45.6639V41.4235C77.9329 40.6479 79.5981 40.6479 79.5981 41.4235V45.5632C79.5981 46.6107 80.133 47.0438 80.7789 47.0438C81.4248 47.0438 81.9596 46.6107 81.9596 45.5632V41.4235C81.9596 40.6479 83.6248 40.6479 83.6248 41.4235Z" fill="white"/>
<path d="M77.1071 44.6163C77.1071 47.2855 75.8356 48.4942 74.019 48.4942C72.2024 48.4942 70.9308 47.2855 70.9308 44.6163C70.9308 41.9472 72.2024 40.7385 74.019 40.7385C75.8356 40.7385 77.1071 41.9472 77.1071 44.6163ZM75.4621 44.5962C75.4621 43.448 75.1291 42.1789 74.019 42.1789C72.9089 42.1789 72.5758 43.4681 72.5758 44.6163C72.5758 45.7646 72.9089 47.0538 74.019 47.0538C75.1291 47.0538 75.4621 45.7444 75.4621 44.5962Z" fill="white"/>
<path d="M64.973 41.8266C64.973 41.2021 65.2757 40.8899 65.8913 40.8899H69.6657C70.5034 40.8899 70.5034 42.3403 69.6657 42.3403H66.6886V43.69H69.6657C70.5034 43.69 70.5034 45.1404 69.6657 45.1404H66.6886V47.8398C66.6886 48.6153 64.973 48.6153 64.973 47.8398V41.8266Z" fill="white"/>
<path d="M55.5098 42.3604C54.6721 42.3604 54.6721 40.8899 55.5098 40.8899H60.586C61.4237 40.8899 61.4237 42.3604 60.586 42.3604H58.9007V47.8398C58.9007 48.6153 57.185 48.6153 57.185 47.8398V42.3604H55.5098Z" fill="white"/>
<path d="M54.755 44.6163C54.755 47.2855 53.4834 48.4942 51.6668 48.4942C49.8503 48.4942 48.5787 47.2855 48.5787 44.6163C48.5787 41.9472 49.8503 40.7385 51.6668 40.7385C53.4834 40.7385 54.755 41.9472 54.755 44.6163ZM53.11 44.5962C53.11 43.448 52.7769 42.1789 51.6668 42.1789C50.5567 42.1789 50.2237 43.4681 50.2237 44.6163C50.2237 45.7646 50.5567 47.0538 51.6668 47.0538C52.7769 47.0538 53.11 45.7444 53.11 44.5962Z" fill="white"/>
<path d="M46.0873 41.3934C46.0873 40.6179 47.7524 40.6179 47.7524 41.3934V47.6785C47.7524 48.5347 46.5616 48.5951 46.2184 48.0512L43.6652 44.1633V47.8397C43.6652 48.6153 42 48.6153 42 47.8397V41.5345C42 40.8093 43.1707 40.5574 43.5743 41.2121L46.0873 45.1202V41.3934Z" fill="white"/>
<path d="M88.9669 33.8583V35.0771C88.9669 35.349 89.0678 35.5908 89.3504 35.621C89.7642 35.6713 91.2174 35.5605 92.0551 35.3692C92.7918 35.1979 93.1046 36.4771 92.2973 36.7894C91.5 37.1016 89.7743 37.1822 88.8054 37.1117C87.7256 37.0311 87.2513 36.5275 87.2513 35.4095V30.6352C87.2513 30.0107 87.554 29.6985 88.1697 29.6985H91.9239C92.7615 29.6985 92.7615 31.1489 91.9239 31.1489H88.9669V32.4079H91.9239C92.7615 32.4079 92.7615 33.8583 91.9239 33.8583H88.9669Z" fill="white"/>
<path d="M83.4186 34.2611C82.581 34.2611 82.581 32.7905 83.4186 32.7905H85.6691C86.0829 32.7905 86.2746 33.0121 86.2746 33.3949V35.369C86.1233 36.336 84.8618 37.2324 83.3883 37.2928C80.9662 37.3936 79.8158 35.6208 79.8057 33.4251C79.7956 31.2394 80.8956 29.5171 83.2067 29.5473C84.6801 29.5674 85.4976 30.1113 86.0324 31.2193C86.4159 32.015 85.0838 32.71 84.6599 32.0653C84.2361 31.4106 83.9131 31.0077 83.2269 31.0178C82.036 31.0279 81.4507 31.9948 81.4507 33.4251C81.4507 34.7647 81.9855 35.8424 83.2874 35.8324C83.9838 35.8223 84.5287 35.3892 84.6095 35.0971V34.2611H83.4186Z" fill="white"/>
<path d="M77.9519 36.7593L77.5684 35.7823H74.8536L74.4802 36.7593C74.1573 37.6255 72.5426 37.2025 72.8958 36.2658L75.2977 30.0915C75.5399 29.4368 76.8821 29.4267 77.1344 30.0915L79.5363 36.2658C79.8895 37.2025 78.2748 37.6255 77.9519 36.7593ZM76.2161 32.2872L75.439 34.2816H76.983L76.2161 32.2872Z" fill="white"/>
<path d="M66.8369 35.1072C66.6653 34.1907 68.1993 33.8784 68.4213 34.6741C68.603 35.3389 68.9663 35.8224 69.6526 35.8727C70.3489 35.9231 70.8838 35.5202 70.8737 34.9461C70.8636 34.4123 70.4801 34.231 69.5718 34.0295C67.7149 33.6166 66.9176 32.8611 66.958 31.5316C67.0085 30.0308 68.4617 29.4265 69.9049 29.5071C71.56 29.5977 72.3673 30.5143 72.4682 31.7431C72.5389 32.559 70.9847 32.7503 70.8535 31.9848C70.7425 31.3805 70.359 30.9675 69.7737 30.9273C69.0975 30.8769 68.5828 31.1388 68.5929 31.592C68.603 31.9949 68.8149 32.2971 69.9856 32.5993C71.5801 33.0122 72.5591 33.4957 72.5389 34.9058C72.5187 36.4066 71.2976 37.3433 69.6627 37.3231C68.0782 37.303 67.0589 36.3159 66.8369 35.1072Z" fill="white"/>
<path d="M60.4899 35.1072C60.3184 34.1907 61.8523 33.8784 62.0744 34.6741C62.256 35.3389 62.6193 35.8224 63.3056 35.8727C64.0019 35.9231 64.5368 35.5202 64.5267 34.9461C64.5166 34.4123 64.1331 34.231 63.2248 34.0295C61.3679 33.6166 60.5707 32.8611 60.611 31.5316C60.6615 30.0308 62.1147 29.4265 63.5579 29.5071C65.213 29.5977 66.0203 30.5143 66.1212 31.7431C66.1919 32.559 64.6377 32.7503 64.5065 31.9848C64.3955 31.3805 64.012 30.9675 63.4267 30.9273C62.7505 30.8769 62.2358 31.1388 62.2459 31.592C62.256 31.9949 62.4679 32.2971 63.6386 32.5993C65.2331 33.0122 66.2121 33.4957 66.1919 34.9058C66.1717 36.4066 64.9506 37.3433 63.3157 37.3231C61.7312 37.303 60.7119 36.3159 60.4899 35.1072Z" fill="white"/>
<path d="M56.0103 33.8583V35.0771C56.0103 35.349 56.1112 35.5908 56.3938 35.621C56.8076 35.6713 58.2608 35.5605 59.0985 35.3692C59.8352 35.1979 60.148 36.4771 59.3407 36.7894C58.5434 37.1016 56.8177 37.1822 55.8488 37.1117C54.769 37.0311 54.2947 36.5275 54.2947 35.4095V30.6352C54.2947 30.0107 54.5974 29.6985 55.213 29.6985H58.9673C59.8049 29.6985 59.8049 31.1489 58.9673 31.1489H56.0103V32.4079H58.9673C59.8049 32.4079 59.8049 33.8583 58.9673 33.8583H56.0103Z" fill="white"/>
<path d="M53.2632 30.2826V36.6483C53.2632 37.4238 51.6485 37.4238 51.6485 36.6483V33.0525L50.5586 35.4497C50.2861 36.0741 49.3677 36.0842 49.0952 35.4497L48.0053 33.0525V36.6483C48.0053 37.4238 46.3906 37.4238 46.3906 36.6483V30.3027C46.3906 29.5574 47.8337 29.3861 48.0961 29.9804L49.8218 33.687L51.5577 30.0106C51.8301 29.4164 53.2632 29.5372 53.2632 30.2826Z" fill="white"/>
<path d="M162.258 96.1066C161.743 96.1066 161.228 95.9121 160.827 95.5115L155.974 90.6585C155.185 89.8688 155.185 88.5868 155.974 87.7971L160.827 82.9441C161.617 82.1544 162.899 82.1544 163.689 82.9441L168.542 87.7971C169.331 88.5868 169.331 89.8688 168.542 90.6585L163.689 95.5115C163.288 95.9121 162.773 96.1066 162.258 96.1066ZM160.266 89.2278L162.258 91.2193L164.25 89.2278L162.258 87.2362L160.266 89.2278Z" fill="#D2D2D2"/>
<path d="M147.07 63.5435C146.726 63.5435 146.383 63.452 146.062 63.2688L146.017 63.2459C145.044 62.6851 144.712 61.449 145.273 60.4875C145.833 59.5146 147.07 59.1827 148.031 59.7436L148.077 59.7665C149.05 60.3273 149.382 61.5634 148.821 62.5249C148.443 63.1773 147.768 63.5435 147.07 63.5435Z" fill="#C4C4C4"/>
<path d="M157.142 69.358C156.798 69.358 156.455 69.2664 156.135 69.0833L156.089 69.0604C155.116 68.4996 154.784 67.2634 155.345 66.302C155.906 65.3291 157.142 64.9972 158.103 65.558L158.138 65.5809C159.111 66.1417 159.442 67.3779 158.882 68.3393C158.504 68.9917 157.829 69.358 157.13 69.358H157.142Z" fill="#C4C4C4"/>
<path d="M157.108 63.544C156.409 63.544 155.723 63.1777 155.356 62.5253C154.795 61.5524 155.139 60.3163 156.1 59.7669L156.146 59.744C157.119 59.1832 158.355 59.5265 158.904 60.488C159.465 61.4609 159.122 62.697 158.161 63.2464L158.126 63.2693C157.806 63.4524 157.462 63.544 157.119 63.544H157.108Z" fill="#C4C4C4"/>
<path d="M147.024 69.3579C146.326 69.3579 145.639 68.9917 145.273 68.3393C144.712 67.3664 145.055 66.1303 146.017 65.5809L146.062 65.558C147.035 64.9971 148.271 65.3405 148.821 66.3019C149.382 67.2748 149.05 68.511 148.077 69.0604L148.031 69.0832C147.711 69.2664 147.367 69.3579 147.024 69.3579Z" fill="#C4C4C4"/>
<path d="M152.083 60.6481C150.961 60.6481 150.057 59.7439 150.057 58.6222V58.5764C150.057 57.4547 150.961 56.5505 152.083 56.5505C153.205 56.5505 154.109 57.4547 154.109 58.5764V58.6222C154.109 59.7439 153.205 60.6481 152.083 60.6481Z" fill="#C4C4C4"/>
<path d="M152.083 72.2765C150.961 72.2765 150.057 71.3723 150.057 70.2506V70.2048C150.057 69.0832 150.961 68.179 152.083 68.179C153.205 68.179 154.109 69.0832 154.109 70.2048V70.2506C154.109 71.3723 153.205 72.2765 152.083 72.2765Z" fill="#C4C4C4"/>
<defs>
<linearGradient id="paint0_linear_2003_1914" x1="84.7933" y1="171.934" x2="84.7933" y2="8.77603" gradientUnits="userSpaceOnUse">
<stop stop-color="#CBCBCB" stop-opacity="0.4"/>
<stop offset="0.15" stop-color="#CBCBCB" stop-opacity="0.34"/>
<stop offset="1" stop-color="#CBCBCB" stop-opacity="0"/>
</linearGradient>
<linearGradient id="paint1_linear_2003_1914" x1="69.7118" y1="66.9889" x2="69.7118" y2="17.6466" gradientUnits="userSpaceOnUse">
<stop stop-color="#CBCBCB" stop-opacity="0.4"/>
<stop offset="0.15" stop-color="#CBCBCB" stop-opacity="0.34"/>
<stop offset="1" stop-color="#CBCBCB" stop-opacity="0"/>
</linearGradient>
</defs>
</svg>
