<svg width="32" height="32" viewBox="0 0 32 32" fill="#DFDFDF" xmlns="http://www.w3.org/2000/svg">
<path d="M7.52942 15.0587H14.1176C14.4981 15.0587 14.8418 14.8299 14.9871 14.4779C15.1324 14.1259 15.0514 13.7214 14.783 13.4522L13.4779 12.1471C14.5036 10.8318 15.0588 9.22329 15.0588 7.52942C15.0588 3.3778 11.682 2.49295e-09 7.52942 2.49295e-09C3.37684 -0.000105958 0 3.37758 0 7.52931C0 11.6809 3.37684 15.0587 7.52942 15.0587ZM31.7242 13.6727C32.0919 13.305 32.0919 12.7094 31.7242 12.3418L29.0698 9.6874C28.7021 9.31972 28.1065 9.31972 27.739 9.6874L25.7387 11.6877L29.7241 15.6728L31.7242 13.6727ZM15.6342 24.4521L16.9651 25.7829L20.4099 22.3261L19.0846 21.0016L15.6342 24.4521ZM31.0588 28.2352C29.4963 28.2352 28.6618 28.8601 27.9926 29.362C27.4063 29.8004 26.9835 30.1175 26.0331 30.1175C25.0956 30.1175 24.6765 29.8022 24.0956 29.3657C23.6401 29.0237 23.0898 28.6387 22.3062 28.418L25.057 25.6671C25.9559 24.7783 26.4522 23.5954 26.4522 22.3335C26.4522 21.3942 26.1765 20.4971 25.6636 19.7334L28.3933 17.0037L24.4078 13.0187L21.6784 15.7481C19.8843 14.545 17.2905 14.7877 15.7482 16.351L3.24778 28.8513C2.66257 28.5047 1.95857 28.2352 0.941138 28.2352C0.420874 28.2352 0 28.6562 0 29.1763C0 29.6965 0.42098 30.1175 0.941138 30.1175C1.81065 30.1175 2.24265 30.3932 2.80508 30.8141C3.30013 31.1064 4.0872 31.9998 5.96682 31.9998C7.53302 31.9998 8.36576 31.373 9.0367 30.8693C9.61757 30.4328 10.0368 30.1176 10.9742 30.1176C11.9245 30.1176 12.3473 30.4346 12.9337 30.8731C13.6029 31.3749 14.4375 31.9998 16 31.9998C17.5643 31.9998 18.4007 31.373 19.0717 30.8693C19.7062 30.3934 20.1073 30.1176 21.0257 30.1176C21.9632 30.1176 22.3823 30.4328 22.9631 30.8693C23.6341 31.373 24.4668 31.9998 26.033 31.9998C27.6102 31.9998 28.4466 31.372 29.1212 30.8684C29.7021 30.4327 30.1231 30.1175 31.0587 30.1175C31.579 30.1175 31.9998 29.6965 31.9998 29.1763C31.9999 28.6561 31.579 28.2352 31.0588 28.2352ZM17.6433 27.7701C17.4669 27.9475 17.226 28.0468 16.9761 28.0468C16.7261 28.0468 16.4687 27.9475 16.2922 27.7711L13.6378 25.1176C13.4614 24.9411 13.3621 24.7022 13.3621 24.4522C13.3621 24.2022 13.4614 23.9632 13.6378 23.7868L18.419 19.0055C18.7867 18.6378 19.3823 18.6378 19.7499 19.0055L22.4043 21.659C22.772 22.0257 22.772 22.6213 22.4061 22.989L17.6433 27.7701Z"/>
</svg>
