<svg width="25" height="25" viewBox="0 0 25 25" fill="none" xmlns="http://www.w3.org/2000/svg">
<path d="M21.25 2.5H18.75V1.25C18.75 0.918479 18.6183 0.600537 18.3839 0.366116C18.1495 0.131696 17.8315 0 17.5 0C17.1685 0 16.8505 0.131696 16.6161 0.366116C16.3817 0.600537 16.25 0.918479 16.25 1.25V2.5H8.75V1.25C8.75 0.918479 8.6183 0.600537 8.38388 0.366116C8.14946 0.131696 7.83152 0 7.5 0C7.16848 0 6.85054 0.131696 6.61612 0.366116C6.3817 0.600537 6.25 0.918479 6.25 1.25V2.5H3.75C2.75544 2.5 1.80161 2.89509 1.09835 3.59835C0.395088 4.30161 0 5.25544 0 6.25V21.25C0 22.2446 0.395088 23.1984 1.09835 23.9017C1.80161 24.6049 2.75544 25 3.75 25H21.25C22.2446 25 23.1984 24.6049 23.9017 23.9017C24.6049 23.1984 25 22.2446 25 21.25V6.25C25 5.25544 24.6049 4.30161 23.9017 3.59835C23.1984 2.89509 22.2446 2.5 21.25 2.5ZM2.5 6.25C2.5 5.91848 2.6317 5.60054 2.86612 5.36612C3.10054 5.1317 3.41848 5 3.75 5H6.25V6.25C6.25 6.58152 6.3817 6.89946 6.61612 7.13388C6.85054 7.3683 7.16848 7.5 7.5 7.5C7.83152 7.5 8.14946 7.3683 8.38388 7.13388C8.6183 6.89946 8.75 6.58152 8.75 6.25V5H16.25V6.25C16.25 6.58152 16.3817 6.89946 16.6161 7.13388C16.8505 7.3683 17.1685 7.5 17.5 7.5C17.8315 7.5 18.1495 7.3683 18.3839 7.13388C18.6183 6.89946 18.75 6.58152 18.75 6.25V5H21.25C21.5815 5 21.8995 5.1317 22.1339 5.36612C22.3683 5.60054 22.5 5.91848 22.5 6.25V8.75H2.5V6.25ZM21.25 22.5H3.75C3.41848 22.5 3.10054 22.3683 2.86612 22.1339C2.6317 21.8995 2.5 21.5815 2.5 21.25V11.25H22.5V21.25C22.5 21.5815 22.3683 21.8995 22.1339 22.1339C21.8995 22.3683 21.5815 22.5 21.25 22.5Z" fill="#5494DA"/>
<path d="M18.75 15H6.25C5.91848 15 5.60054 15.1317 5.36612 15.3661C5.1317 15.6005 5 15.9185 5 16.25C5 16.5815 5.1317 16.8995 5.36612 17.1339C5.60054 17.3683 5.91848 17.5 6.25 17.5H18.75C19.0815 17.5 19.3995 17.3683 19.6339 17.1339C19.8683 16.8995 20 16.5815 20 16.25C20 15.9185 19.8683 15.6005 19.6339 15.3661C19.3995 15.1317 19.0815 15 18.75 15Z" fill="#5494DA"/>
</svg>
