<svg width="25" height="32" viewBox="0 0 25 32" fill="#DFDFDF" xmlns="http://www.w3.org/2000/svg">
<path d="M22.7258 24.65H24.8775V28.6386H22.7258V24.65Z" />
<path d="M4.03839 22.775V0H3.31183C2.42814 0 1.60051 0.341937 0.981515 0.962687C0.345952 1.60006 -0.00261028 2.45712 1.47191e-05 3.37344V23.3306C0.583077 22.9782 1.26595 22.775 1.99558 22.775H4.03839Z" />
<path d="M16.5003 9.85809L15.33 11.0285L14.0181 9.71665C13.5385 9.23703 12.7609 9.23703 12.2813 9.71665C11.8027 10.1953 11.8016 10.9709 12.2788 11.4509L15.3185 14.5085L18.2347 11.5924C18.7135 11.1135 18.7135 10.3371 18.2347 9.85821C17.7557 9.37921 16.9792 9.37921 16.5003 9.85809Z" />
<path d="M5.90723 0V22.775H24.8775V0H5.90723ZM19.8599 12.6222L15.313 17.1677L10.7977 12.6198C9.58991 11.4121 9.58991 9.443 10.8001 8.23281C11.3864 7.64656 12.1658 7.32369 12.9948 7.32369C13.8238 7.32369 14.6033 7.64656 15.1895 8.23275L15.33 8.37325L15.4705 8.23275C16.0568 7.6465 16.8362 7.32369 17.6652 7.32369C18.4943 7.32369 19.2737 7.64656 19.86 8.23275C21.0701 9.44294 21.0701 11.412 19.8599 12.6222Z" />
<path d="M0.0012207 26.6444C0.0012207 27.7441 0.895846 28.6386 1.99547 28.6386H15.0507V24.65H1.99547C0.895846 24.65 0.0012207 25.5447 0.0012207 26.6444Z" />
<path d="M17 31.9614L19.0251 30.3672L21.0502 31.9614V24.6H17V31.9614Z" />
</svg>
