<svg width="33" height="32" viewBox="0 0 33 32" fill="#DFDFDF" xmlns="http://www.w3.org/2000/svg">
<path d="M32.254 14.3457L18.953 1.0427C17.5631 -0.347566 15.3092 -0.347566 13.9193 1.0427L0.572508 14.3932C-0.651594 15.6175 0.217458 17.7111 1.94865 17.7077L4.34848 17.7042V30.0758C4.34848 31.1385 5.20975 32 6.27231 32H12.8049V24.5761C12.8049 22.587 14.4177 20.9738 16.4064 20.9738C18.3958 20.9738 20.0078 22.587 20.0078 24.5761V32H26.5404C27.603 32 28.4642 31.1385 28.4642 30.0758V17.6654L30.8856 17.661C32.6134 17.6584 33.4773 15.5683 32.2549 14.3465L32.254 14.3457Z" />
</svg>
