<svg width="20" height="17" viewBox="0 0 20 17" fill="none" xmlns="http://www.w3.org/2000/svg">
<path d="M17.867 10.0697L10 16.1214L2.13304 10.0697C0.787261 9.03533 -0.00112562 7.43414 1.20628e-06 5.7368V5.46674C-0.000374467 4.38764 0.318886 3.33296 0.917594 2.43527C1.82505 1.07184 3.29665 0.188048 4.92638 0.0265395C6.55612 -0.134593 8.17195 0.443832 9.32918 1.60294L10 2.27526L10.6708 1.60444C11.8277 0.445334 13.4439 -0.133091 15.0736 0.0280419C16.7034 0.18955 18.1746 1.07334 19.0824 2.43677C19.6807 3.33446 20.0004 4.38952 20 5.46825V5.7368C20.0008 7.43414 19.2127 9.03533 17.867 10.0697Z" fill="#EA6B65"/>
</svg>
