<svg width="30" height="32" viewBox="0 0 30 32" fill="#DFDFDF" xmlns="http://www.w3.org/2000/svg">
<path d="M26.4223 15.9998C29.18 14.3524 30.1141 10.7912 28.5023 7.99978C26.8906 5.20832 23.3397 4.23674 20.5342 5.80138C20.4864 2.58949 17.8694 0 14.6462 0C11.4228 0 8.80578 2.58949 8.75807 5.80161C5.95256 4.23698 2.40146 5.20864 0.789831 8.00026C-0.821802 10.7916 0.112191 14.3528 2.87007 16C0.112269 17.6475 -0.821802 21.2086 0.78991 24.0001C2.40162 26.7916 5.95272 27.7632 8.75823 26.1985C8.80586 29.4106 11.423 32.0002 14.6463 32C17.8697 32 20.4866 29.4104 20.5343 26.1985C23.3398 27.763 26.891 26.7914 28.5025 23.9997C30.1142 21.2082 29.18 17.6471 26.4223 15.9998ZM14.6462 21.394C11.6671 21.394 9.25202 18.979 9.25202 15.9999C9.25202 13.0207 11.6671 10.6058 14.6462 10.6058C17.6252 10.6058 20.0403 13.0207 20.0403 15.9999C20.0403 18.979 17.6252 21.394 14.6462 21.394Z" />
</svg>
