<svg fill="none" stroke="#5494DA" stroke-width="2.5" height="27" viewBox="0 0 64 64" width="27" xmlns="http://www.w3.org/2000/svg"><path clip-rule="evenodd" d="m10.0123 6.31502c-2.29859-1.14878-4.77685 1.19189-3.76649 3.54828l8.63429 20.1372h16.1236c1.1044 0 1.9997.8952 1.9997 1.9995s-.8953 1.9995-1.9997 1.9995h-16.1236l-8.6343 20.1372c-1.01035 2.3564 1.4679 4.6971 3.7666 3.5483l46.4646-23.2215c2.0313-1.0152 2.0313-3.9118 0-4.927zm1.3735 25.68498-8.81594-20.5609c-2.4802791-5.78465 3.6035-11.5134229 9.23064-8.70117l46.4647 23.22147c4.9797 2.4887 4.9797 9.5925 0 12.0812l-46.4647 23.2215c-5.62712 2.8122-11.7109294-2.9165-9.23065-8.7011z" fill="#5494DA" fill-rule="evenodd"/></svg>
