<svg width="27" height="27" viewBox="0 0 27 27" fill="none" xmlns="http://www.w3.org/2000/svg">
<path d="M22.7983 7.39421C22.5671 7.39421 22.3453 7.30234 22.1818 7.13882C22.0183 6.9753 21.9264 6.75352 21.9264 6.52227V4.1971C21.9258 3.81187 21.7725 3.44259 21.5001 3.17019C21.2277 2.89779 20.8584 2.74449 20.4732 2.74387H6.52218C6.13695 2.74449 5.76767 2.89779 5.49527 3.17019C5.22287 3.44259 5.06956 3.81187 5.06895 4.1971V6.52227C5.06895 6.75352 4.97708 6.9753 4.81356 7.13882C4.65004 7.30234 4.42826 7.39421 4.19701 7.39421C3.96576 7.39421 3.74398 7.30234 3.58046 7.13882C3.41694 6.9753 3.32507 6.75352 3.32507 6.52227V4.1971C3.32569 3.34937 3.66272 2.53653 4.26216 1.93709C4.8616 1.33765 5.67444 1.00062 6.52218 1H20.4732C21.3209 1.00062 22.1337 1.33765 22.7332 1.93709C23.3326 2.53653 23.6697 3.34937 23.6703 4.1971V6.52227C23.6703 6.75352 23.5784 6.9753 23.4149 7.13882C23.2514 7.30234 23.0296 7.39421 22.7983 7.39421Z" fill="#5494DA" stroke="#5494DA"/>
<path d="M20.0373 25.9955H6.95825C5.7453 26.049 4.56041 25.6207 3.66202 24.8039C2.76364 23.9872 2.22464 22.8484 2.1626 21.6359V14.9278C2.1626 14.6965 2.25446 14.4747 2.41798 14.3112C2.5815 14.1477 2.80328 14.0558 3.03453 14.0558C3.26579 14.0558 3.48757 14.1477 3.65109 14.3112C3.81461 14.4747 3.90647 14.6965 3.90647 14.9278V21.6359C3.96941 22.3854 4.32487 23.08 4.89597 23.5696C5.46707 24.0591 6.2079 24.3041 6.95825 24.2517H20.0373C20.7877 24.3041 21.5285 24.0591 22.0996 23.5696C22.6707 23.08 23.0262 22.3854 23.0891 21.6359V14.9278C23.0891 14.6965 23.181 14.4747 23.3445 14.3112C23.508 14.1477 23.7298 14.0558 23.961 14.0558C24.1923 14.0558 24.4141 14.1477 24.5776 14.3112C24.7411 14.4747 24.833 14.6965 24.833 14.9278V21.6359C24.7709 22.8484 24.2319 23.9872 23.3335 24.8039C22.4352 25.6207 21.2503 26.049 20.0373 25.9955Z" fill="#5494DA" stroke="#5494DA"/>
<path d="M10.01 22.5078C9.77875 22.5078 9.55697 22.4159 9.39345 22.2524C9.22993 22.0889 9.13806 21.8671 9.13806 21.6359V19.3107C9.13806 19.0794 9.22993 18.8577 9.39345 18.6941C9.55697 18.5306 9.77875 18.4388 10.01 18.4388C10.2413 18.4388 10.463 18.5306 10.6266 18.6941C10.7901 18.8577 10.8819 19.0794 10.8819 19.3107V21.6359C10.8819 21.8671 10.7901 22.0889 10.6266 22.2524C10.463 22.4159 10.2413 22.5078 10.01 22.5078Z" fill="#5494DA" stroke="#5494DA"/>
<path d="M16.9856 22.5078C16.7543 22.5078 16.5326 22.4159 16.369 22.2524C16.2055 22.0889 16.1136 21.8671 16.1136 21.6359V19.3107C16.1136 19.0794 16.2055 18.8577 16.369 18.6941C16.5326 18.5306 16.7543 18.4388 16.9856 18.4388C17.2168 18.4388 17.4386 18.5306 17.6021 18.6941C17.7657 18.8577 17.8575 19.0794 17.8575 19.3107V21.6359C17.8575 21.8671 17.7657 22.0889 17.6021 22.2524C17.4386 22.4159 17.2168 22.5078 16.9856 22.5078Z" fill="#5494DA" stroke="#5494DA"/>
<path d="M5.94098 16.6949C4.63102 16.6933 3.37516 16.1723 2.44888 15.246C1.5226 14.3197 1.00154 13.0638 1 11.7539V8.84743C1.00062 7.9997 1.33765 7.18686 1.93709 6.58742C2.53653 5.98798 3.34937 5.65095 4.1971 5.65033H10.01C10.2413 5.65033 10.4631 5.74219 10.6266 5.90571C10.7901 6.06923 10.882 6.29101 10.882 6.52227V11.7539C10.8804 13.0638 10.3594 14.3197 9.43308 15.246C8.5068 16.1723 7.25094 16.6933 5.94098 16.6949ZM4.1971 7.3942C3.81187 7.39482 3.44259 7.54812 3.17019 7.82052C2.89779 8.09292 2.74449 8.4622 2.74387 8.84743V11.7539C2.74387 12.6018 3.08071 13.415 3.68028 14.0146C4.27986 14.6142 5.09305 14.951 5.94098 14.951C6.7889 14.951 7.6021 14.6142 8.20167 14.0146C8.80125 13.415 9.13808 12.6018 9.13808 11.7539V7.3942H4.1971Z" fill="#5494DA" stroke="#5494DA"/>
<path d="M21.0546 16.6949C19.7447 16.6933 18.4888 16.1723 17.5625 15.246C16.6362 14.3197 16.1152 13.0638 16.1136 11.7539V6.52227C16.1136 6.29101 16.2055 6.06923 16.369 5.90571C16.5326 5.74219 16.7543 5.65033 16.9856 5.65033H22.7985C23.6462 5.65095 24.4591 5.98798 25.0585 6.58742C25.658 7.18686 25.995 7.9997 25.9956 8.84743V11.7539C25.9941 13.0638 25.473 14.3197 24.5467 15.246C23.6204 16.1723 22.3646 16.6933 21.0546 16.6949ZM17.8575 7.3942V11.7539C17.8575 12.6018 18.1944 13.415 18.7939 14.0146C19.3935 14.6142 20.2067 14.951 21.0546 14.951C21.9026 14.951 22.7157 14.6142 23.3153 14.0146C23.9149 13.415 24.2517 12.6018 24.2517 11.7539V8.84743C24.2511 8.4622 24.0978 8.09292 23.8254 7.82052C23.553 7.54812 23.1837 7.39482 22.7985 7.3942H17.8575Z" fill="#5494DA" stroke="#5494DA"/>
<path d="M13.4977 16.6949C12.3419 16.6936 11.2337 16.2339 10.4163 15.4166C9.59901 14.5993 9.13929 13.4911 9.13806 12.3352V7.10356C9.13868 6.71833 9.29198 6.34905 9.56438 6.07665C9.83678 5.80425 10.2061 5.65094 10.5913 5.65033H16.4042C16.7894 5.65094 17.1587 5.80425 17.4311 6.07665C17.7035 6.34905 17.8568 6.71833 17.8574 7.10356V12.3352C17.8559 13.491 17.3961 14.599 16.5788 15.4162C15.7615 16.2335 14.6535 16.6933 13.4977 16.6949ZM10.8819 7.3942V12.3352C10.8819 13.0289 11.1575 13.6943 11.6481 14.1848C12.1386 14.6754 12.804 14.951 13.4977 14.951C14.1915 14.951 14.8568 14.6754 15.3474 14.1848C15.838 13.6943 16.1136 13.0289 16.1136 12.3352V7.3942H10.8819Z" fill="#5494DA" stroke="#5494DA"/>
</svg>
