<svg width="20" height="17" viewBox="0 0 20 17" fill="none" xmlns="http://www.w3.org/2000/svg">
<path d="M14.7855 0.0321896C13.0594 -0.141499 11.347 0.470596 10.1221 1.69932L10 1.8179L9.88142 1.69932C8.22684 0.0409089 5.73556 -0.455743 3.57143 0.440602C1.40695 1.3373 -0.00278604 3.45051 4.13423e-06 5.79286V6.04223C0.00523565 7.83806 0.83915 9.531 2.25935 10.63L9.56439 16.2508C9.82108 16.4485 10.1789 16.4485 10.4356 16.2508L17.7407 10.6314C19.1612 9.53205 19.9951 7.83841 20 6.04223V5.79147C20 2.81679 17.7455 0.326205 14.7855 0.0307945V0.0321896ZM18.5714 6.04223C18.5672 7.39477 17.9395 8.66988 16.8701 9.49787L10 14.7835L3.12989 9.49787C2.06055 8.66988 1.43276 7.39477 1.42858 6.04223V5.79147C1.42718 3.55026 3.12675 1.67351 5.35715 1.45309C5.50154 1.43809 5.64698 1.43077 5.79206 1.43077C6.9472 1.43007 8.05455 1.88975 8.86998 2.70797L9.49358 3.33157C9.7726 3.61024 10.2246 3.61024 10.5036 3.33157L11.1272 2.70797C12.373 1.45692 14.2512 1.08165 15.8824 1.75757C17.5136 2.43349 18.5756 4.02703 18.5714 5.79286V6.04223Z" fill="#9E9E9E"/>
</svg>
