<svg width="23" height="26" viewBox="0 0 23 26" fill="none" xmlns="http://www.w3.org/2000/svg">
<path d="M11.7143 13C10.4782 13 9.26978 12.6334 8.24197 11.9467C7.21416 11.2599 6.41309 10.2838 5.94004 9.14177C5.46699 7.99973 5.34322 6.74307 5.58438 5.53069C5.82553 4.31831 6.42079 3.20466 7.29487 2.33059C8.16895 1.45651 9.28259 0.861252 10.495 0.620095C11.7074 0.378937 12.964 0.502708 14.1061 0.975756C15.2481 1.4488 16.2242 2.24988 16.911 3.27769C17.5977 4.3055 17.9643 5.51387 17.9643 6.75C17.9643 8.4076 17.3058 9.99732 16.1337 11.1694C14.9616 12.3415 13.3719 13 11.7143 13ZM11.7143 2.28572C10.8313 2.28572 9.96821 2.54754 9.23406 3.03808C8.49991 3.52863 7.92771 4.22585 7.58982 5.04159C7.25193 5.85734 7.16352 6.75495 7.33578 7.62094C7.50803 8.48693 7.93322 9.28239 8.55756 9.90673C9.1819 10.5311 9.97736 10.9563 10.8433 11.1285C11.7093 11.3008 12.607 11.2124 13.4227 10.8745C14.2384 10.5366 14.9357 9.96437 15.4262 9.23023C15.9167 8.49608 16.1786 7.63295 16.1786 6.75C16.1786 5.566 15.7082 4.43049 14.871 3.59328C14.0338 2.75606 12.8983 2.28572 11.7143 2.28572ZM19.75 25.5H3.67857C2.96817 25.5 2.28686 25.2178 1.78454 24.7155C1.28221 24.2131 1 23.5318 1 22.8214C1 20.6902 1.84662 18.6463 3.35361 17.1393C4.86059 15.6323 6.90451 14.7857 9.03571 14.7857H14.3929C16.5241 14.7857 18.568 15.6323 20.075 17.1393C21.582 18.6463 22.4286 20.6902 22.4286 22.8214C22.4286 23.5318 22.1464 24.2131 21.644 24.7155C21.1417 25.2178 20.4604 25.5 19.75 25.5ZM9.03571 16.5714C7.37811 16.5714 5.7884 17.2299 4.6163 18.402C3.44419 19.5741 2.78571 21.1638 2.78571 22.8214C2.78571 23.0582 2.87978 23.2853 3.04723 23.4528C3.21467 23.6202 3.44177 23.7143 3.67857 23.7143H19.75C19.9868 23.7143 20.2139 23.6202 20.3813 23.4528C20.5488 23.2853 20.6429 23.0582 20.6429 22.8214C20.6429 21.1638 19.9844 19.5741 18.8123 18.402C17.6402 17.2299 16.0505 16.5714 14.3929 16.5714H9.03571Z" fill="#5494DA" stroke="#5494DA"/>
</svg>
