<svg width="26" height="25" viewBox="0 0 26 25" fill="none" xmlns="http://www.w3.org/2000/svg">
    <path d="M5.95874 19.802H6.33909H6.71943L11.7907 18.2806L12.0443 18.1538C12.171 18.1538 12.171 18.027 12.2978 18.027L23.5814 6.74345C24.3421 5.98276 24.8492 5.09529 24.8492 3.95425C24.976 2.94 24.5956 1.79897 23.8349 1.03828C23.0743 0.277589 22.06 -0.102756 21.0458 0.0240252C20.0315 0.0240252 19.0172 0.531151 18.2566 1.29184L6.973 12.4486C6.973 12.5754 6.84621 12.5754 6.84621 12.7022C6.84621 12.829 6.71943 12.829 6.71943 12.9557L5.07127 18.2806C4.81771 18.9145 5.19805 19.6752 5.95874 19.802Z" fill="#5494DA"/>
<path d="M24.0885 22.4644H1.26782C0.507126 22.4644 0 22.9715 0 23.7322C0 24.4929 0.507126 25 1.26782 25H24.0885C24.8492 25 25.3563 24.4929 25.3563 23.7322C25.3563 22.9715 24.8492 22.4644 24.0885 22.4644Z" fill="#5494DA"/>
</svg>
